# xmcd CD database file
#
# Track frame offsets:
#	150
#	18256
#	38023
#	52420
#	61710
#	76481
#	91117
#	111693
#	127687
#	143310
#	155830
#	173786
#	191260
#	208529
#	222850
#
# Disc length: 3254 seconds
#
# Revision: 0
# Processed by: cddbd v1.5.2PL0 Copyright (c) Steve Scherf et al.
# Submitted via: CDex 1.70beta2
#
DISCID=c40cb40f
DTITLE=Primera Línea - On Line
DYEAR=2007
DGENRE=Salsa
TTITLE0=No Entiendo Nada
TTITLE1=Todo Se Paga
TTITLE2=Me Sobran Ganas
TTITLE3=Ay! Amor
TTITLE4=Te Esperaré
TTITLE5=Traicionera
TTITLE6=Más Allá
TTITLE7=Fiesta
TTITLE8=Vuelve
TTITLE9=Échese Agua
TTITLE10=Siempre Estarás
TTITLE11=Ingrato Corazón
TTITLE12=Qué Puede Haber
TTITLE13=Sólo Mío
TTITLE14=Pop. Grease
EXTD=YEAR: 2007
EXTT0=
EXTT1=
EXTT2=
EXTT3=
EXTT4=
EXTT5=
EXTT6=
EXTT7=
EXTT8=
EXTT9=
EXTT10=
EXTT11=
EXTT12=
EXTT13=
EXTT14=
PLAYORDER=
